# xmcd
# 
# Track frame offsets:
#     150
#     24925
#     47730
#     95522
#     124887
#     147692
#     169530
#     195410
#     220515
#     229045
# 
# Disc length: 3312
# 
# Revision: 2
# Processed by: cddbd v1.5.2PL0 Copyright (c) Steve Scherf et al.
# Submitted via: BonkEnc v1.0.8
# 
DISCID=820cee0a
DTITLE=Fredrik Ljungkvist - Sonicspace
DYEAR=1996
DGENRE=Contemporary Jazz
TTITLE0=Oktoberhav
TTITLE1=Ougadogo
TTITLE2=Stilla
TTITLE3=Hon Malar
TTITLE4=Symbios 1&2
TTITLE5=Bolle
TTITLE6=Bop About
TTITLE7=Vera
TTITLE8=Opus 8
TTITLE9=Polkadots and Moonbeams
EXTD=YEAR: 1997
EXTT0=
EXTT1=
EXTT2=
EXTT3=
EXTT4=
EXTT5=
EXTT6=
EXTT7=
EXTT8=
EXTT9=
PLAYORDER=
